<?xml version="1.0" encoding="UTF-8"?>
<svg width="286px" height="242px" viewBox="0 0 286 242" version="1.1" xmlns="http://www.w3.org/2000/svg" xmlns:xlink="http://www.w3.org/1999/xlink">
    <!-- Generator: Sketch 52.4 (67378) - http://www.bohemiancoding.com/sketch -->
    <title>med-student-map</title>
    <desc>Created with Sketch.</desc>
    <g id="med-student-map" stroke="none" stroke-width="1" fill="none" fill-rule="evenodd">
        <g id="user" transform="translate(78.000000, 88.000000)" fill="#000000" fill-rule="nonzero">
            <path d="M23.625,39.375 C23.625,17.6286797 41.2539258,0 63,0 C84.7460742,0 102.375,17.6286797 102.375,39.375 C102.375,61.1213203 84.7460742,78.75 63,78.75 C41.2539258,78.75 23.625,61.1213203 23.625,39.375 Z M98.4375,86.625 L91.4100469,86.625 C73.9359141,97.1364023 52.0567031,97.1319727 34.5899531,86.625 L27.5625,86.625 C12.340125,86.625 0,98.965125 0,114.1875 L0,120.09375 C0,123.355723 2.64427734,126 5.90625,126 L120.09375,126 C123.355723,126 126,123.355723 126,120.09375 L126,114.1875 C126,98.965125 113.659875,86.625 98.4375,86.625 Z" id="Shape"></path>
        </g>
        <g id="map" transform="translate(37.000000, 55.000000)" fill="#000000" fill-rule="nonzero">
            <path d="M24.7189931,0.214125216 L18.5459653,3.1099586 L10.0712014,0.126489369 C9.51888306,-0.0679910044 8.91767019,-0.0373366274 8.38565972,0.212431026 L1.38565972,3.49813355 C0.543033677,3.89365908 -3.8965873e-06,4.77616959 0,5.75002058 L0,20.5339878 C0,22.3276733 1.7495625,23.5046736 3.28100694,22.7858748 L9.45403472,19.8900414 L17.9288472,22.8735106 C18.4811656,23.067991 19.0823784,23.0373366 19.6143889,22.787569 L26.6143889,19.5018664 C27.4569959,19.1063256 28.0000124,18.2238183 28,17.2499794 L28,2.46601225 C28,0.672326701 26.2504375,-0.50467355 24.7189931,0.214125216 Z M17.5,20.1249691 L10.5,17.6606922 L10.5,2.87503087 L17.5,5.33930776 L17.5,20.1249691 Z M2.33333333,20.5356819 L2.33333333,5.75002058 L8.16666667,3.01195226 L8.16666667,17.7976136 L2.33333333,20.5356819 Z M25.6666667,17.2499794 L19.8333333,19.9880477 L19.8333333,5.20238638 L25.6666667,2.46431806 L25.6666667,17.2499794 Z" id="Shape"></path>
        </g>
        <g id="map-marker-alt" transform="translate(65.000000, 42.000000)" fill="#000000" fill-rule="nonzero">
            <path d="M7.17783333,20.5763036 C1.12375,11.9368154 0,11.0501399 0,7.87499808 C0,3.52574328 3.58170833,0 8,0 C12.4182917,0 16,3.52574328 16,7.87499808 C16,11.0501399 14.87625,11.9368154 8.82216667,20.5763036 C8.424875,21.1412527 7.57508333,21.1412116 7.17783333,20.5763036 Z M8,11.1562473 C9.84095833,11.1562473 11.3333333,9.68719099 11.3333333,7.87499808 C11.3333333,6.06280516 9.84095833,4.59374888 8,4.59374888 C6.15904167,4.59374888 4.66666667,6.06280516 4.66666667,7.87499808 C4.66666667,9.68719099 6.15904167,11.1562473 8,11.1562473 Z" id="Shape"></path>
        </g>
        <g id="user-md" transform="translate(209.000000, 51.000000)" fill="#9B9B9B" fill-rule="nonzero">
            <path d="M5,7 C5,3.13403125 7.91017187,0 11.5,0 C15.0898281,0 18,3.13403125 18,7 C18,10.8659688 15.0898281,14 11.5,14 C7.91017187,14 5,10.8659688 5,7 Z M18.0714286,16 L18.0714286,17.8005357 C19.9438237,18.1987321 21.3571429,19.9303214 21.3571429,22 L21.3571429,24.648625 C21.3571429,25.2614821 20.9425781,25.7891607 20.366654,25.909375 L19.2473549,26.143 C18.9137009,26.2126429 18.5891339,25.9868393 18.5224442,25.6386786 L18.4418929,25.2184107 C18.3751518,24.87025 18.5915469,24.5315714 18.9252009,24.4619821 L19.7142857,24.2973036 L19.7142857,22.043125 C19.7142857,20.6351071 18.6467879,19.4557857 17.2976942,19.429 C15.9171808,19.4016786 14.7857143,20.5655714 14.7857143,22 L14.7857143,24.2973036 L15.5748504,24.4619821 C15.9085045,24.531625 16.1248482,24.8703036 16.0581585,25.2184107 L15.9776071,25.6386786 C15.9108661,25.9868393 15.5862991,26.2126429 15.2526964,26.143 L14.1333973,25.909375 C13.5574219,25.7892143 13.1428571,25.2615357 13.1428571,24.648625 L13.1428571,22 C13.1428571,19.9303214 14.5561763,18.1987321 16.4285714,17.8005357 L16.4285714,16 L15.2670714,16 C12.9224576,17.1220536 10.1674888,17.165125 7.73292857,16 L6.57142857,16 L6.57142857,19.5370536 C8.03434152,19.9313929 9.10548437,21.3534464 9.03217187,23.0179643 C8.95485491,24.7739286 7.58969196,26.1996786 5.9069442,26.2818571 C4.02412723,26.3737857 2.46428571,24.8019464 2.46428571,22.8571429 C2.46428571,21.2624821 3.5129933,19.9186429 4.92857143,19.5370536 L4.92857143,16 C2.20661384,16 0,18.3025536 0,21.1428571 L0,26.7142857 C0,27.424375 0.551640625,28 1.23214286,28 L21.7678571,28 C22.4483594,28 23,27.424375 23,26.7142857 L23,21.1428571 C23,18.3025536 20.7933862,16 18.0714286,16 Z M4,22.5 C4,23.3271094 4.67289062,24 5.5,24 C6.32710937,24 7,23.3271094 7,22.5 C7,21.6728906 6.32710938,21 5.5,21 C4.67289062,21 4,21.6728906 4,22.5 Z" id="Shape"></path>
        </g>
        <g id="notes-medical" transform="translate(231.000000, 43.000000)" fill="#9B9B9B" fill-rule="nonzero">
            <path d="M11.375,2.25 L8.66666667,2.25 C8.66666667,1.00898438 7.69505208,0 6.5,0 C5.30494792,0 4.33333333,1.00898438 4.33333333,2.25 L1.625,2.25 C0.727864583,2.25 0,3.00585938 0,3.9375 L0,16.3125 C0,17.2441406 0.727864583,18 1.625,18 L11.375,18 C12.2721354,18 13,17.2441406 13,16.3125 L13,3.9375 C13,3.00585938 12.2721354,2.25 11.375,2.25 Z M6.5,1.40625 C6.95026042,1.40625 7.3125,1.78242188 7.3125,2.25 C7.3125,2.71757813 6.95026042,3.09375 6.5,3.09375 C6.04973958,3.09375 5.6875,2.71757813 5.6875,2.25 C5.6875,1.78242188 6.04973958,1.40625 6.5,1.40625 Z M9.75,12.09375 C9.75,12.2484375 9.628125,12.375 9.47916667,12.375 L7.58333333,12.375 L7.58333333,14.34375 C7.58333333,14.4984375 7.46145833,14.625 7.3125,14.625 L5.6875,14.625 C5.53854167,14.625 5.41666667,14.4984375 5.41666667,14.34375 L5.41666667,12.375 L3.52083333,12.375 C3.371875,12.375 3.25,12.2484375 3.25,12.09375 L3.25,10.40625 C3.25,10.2515625 3.371875,10.125 3.52083333,10.125 L5.41666667,10.125 L5.41666667,8.15625 C5.41666667,8.0015625 5.53854167,7.875 5.6875,7.875 L7.3125,7.875 C7.46145833,7.875 7.58333333,8.0015625 7.58333333,8.15625 L7.58333333,10.125 L9.47916667,10.125 C9.628125,10.125 9.75,10.2515625 9.75,10.40625 L9.75,12.09375 Z M9.75,5.34375 C9.75,5.4984375 9.628125,5.625 9.47916667,5.625 L3.52083333,5.625 C3.371875,5.625 3.25,5.4984375 3.25,5.34375 L3.25,4.78125 C3.25,4.6265625 3.371875,4.5 3.52083333,4.5 L9.47916667,4.5 C9.628125,4.5 9.75,4.6265625 9.75,4.78125 L9.75,5.34375 Z" id="Shape"></path>
        </g>
        <g id="check" transform="translate(51.000000, 87.000000)" fill="#000000">
            <path d="M5.43430999,11.7643204 L0.234304916,6.534417 C-0.0781016388,6.22021421 -0.0781016388,5.71077008 0.234304916,5.39653586 L1.36564977,4.25865471 C1.67805633,3.94442049 2.18461932,3.94442049 2.49702588,4.25865471 L5.99999805,7.78173639 L13.5029741,0.235652093 C13.8153807,-0.0785506976 14.3219437,-0.0785506976 14.6343502,0.235652093 L15.7656951,1.37353324 C16.0781016,1.68773603 16.0781016,2.19718017 15.7656951,2.51141439 L6.5656861,11.7643518 C6.25324829,12.0785546 5.74671655,12.0785546 5.43430999,11.7643204 Z" id="Path"></path>
        </g>
        <ellipse id="Oval" stroke="#000000" stroke-width="3" fill-rule="nonzero" cx="58.5" cy="68.5" rx="51.5" ry="38.5"></ellipse>
        <ellipse id="Oval" stroke="#9B9B9B" stroke-width="3" fill-rule="nonzero" cx="227.5" cy="68.5" rx="51.5" ry="38.5"></ellipse>
        <g id="question" transform="translate(223.000000, 85.000000)" fill="#9B9B9B" fill-rule="nonzero">
            <path d="M5.01338104,0 C2.74518864,0 1.27607379,0.894222656 0.122668441,2.48899219 C-0.0865637048,2.77828906 -0.0220578008,3.1749375 0.269810102,3.38789063 L1.49564961,4.28227734 C1.79041602,4.49733594 2.20981806,4.44705078 2.44059006,4.16885547 C3.15239992,3.31078125 3.68041058,2.81673438 4.79227072,2.81673438 C5.66648201,2.81673438 6.74779419,3.35811328 6.74779419,4.17383203 C6.74779419,4.79048828 6.21876053,5.10718359 5.35557492,5.57284766 C4.34897023,6.11589453 3.01690911,6.79172266 3.01690911,8.48235938 L3.01690911,8.75 C3.01690911,9.11244141 3.32224653,9.40625 3.69890985,9.40625 L5.75829636,9.40625 C6.13495969,9.40625 6.4402971,9.11244141 6.4402971,8.75 L6.4402971,8.59214453 C6.4402971,7.42019141 10,7.37138281 10,4.2 C10.0000284,1.8116875 7.42541877,0 5.01338104,0 Z M4.72861731,10.2117695 C3.64321313,10.2117695 2.76016424,11.0614766 2.76016424,12.1058984 C2.76016424,13.150293 3.64321313,14 4.72861731,14 C5.8140215,14 6.69707039,13.150293 6.69707039,12.1058711 C6.69707039,11.0614492 5.8140215,10.2117695 4.72861731,10.2117695 Z" id="Shape"></path>
        </g>
    </g>
</svg>