<svg xmlns="http://www.w3.org/2000/svg" data-name="Layer 1" viewBox="0 0 64 64" x="0px" y="0px"><title>discover-explore-seen-find-meet-encounter</title><path d="M17.713,4.553l-1.789.894,2.538,5.076a29.03,29.03,0,0,0-7.026,4.305L6.6,11.2,5.4,12.8l4.5,3.379a36.858,36.858,0,0,0-5.933,7.289,1,1,0,0,0,0,1.064,33.168,33.168,0,0,0,9.51,9.941,19.888,19.888,0,0,0,3.327,20.5c.012.016.019.034.032.049.279.325.571.637.868.942.122.125.248.247.373.369.359.348.725.686,1.106,1,.108.09.22.174.329.262q.54.434,1.106.827c.116.08.23.162.347.24.407.27.825.521,1.25.76.135.076.268.154.405.227.442.236.893.45,1.35.651.155.069.309.136.465.2q.7.285,1.414.518c.152.049.3.095.457.14.5.15,1.011.284,1.526.394.122.025.244.046.367.07.559.109,1.124.2,1.694.259.065.007.132.01.2.017.63.06,1.265.1,1.905.1s1.275-.036,1.905-.1c.065-.007.132-.01.2-.017.57-.06,1.135-.15,1.694-.259.123-.024.245-.045.367-.07.515-.11,1.023-.244,1.526-.394.153-.045.3-.091.457-.14q.717-.233,1.414-.518c.156-.064.31-.131.465-.2.457-.2.908-.415,1.35-.651.137-.073.27-.151.405-.227.425-.239.843-.49,1.25-.76.117-.078.231-.16.347-.24q.567-.393,1.106-.827c.109-.088.221-.172.329-.262.381-.319.747-.657,1.106-1,.125-.122.251-.244.373-.369.3-.305.589-.617.868-.942.013-.015.02-.033.032-.049A19.884,19.884,0,0,0,50.52,34.48c.728-.519,1.445-1.065,2.131-1.655a36.384,36.384,0,0,0,7.014-8.293,1,1,0,0,0,0-1.064,34.319,34.319,0,0,0-5.537-6.761l4.529-3.953-1.314-1.508L52.618,15.37a31.234,31.234,0,0,0-7.556-4.62l2.651-5.3-1.789-.894-2.73,5.458A34.479,34.479,0,0,0,33,8.048V2H31V8.009A32.879,32.879,0,0,0,20.333,9.793ZM18,53.274c-.068-.085-.137-.17-.2-.256-.123-.158-.242-.319-.36-.482-.094-.13-.189-.259-.28-.391-.118-.172-.231-.347-.343-.523s-.213-.345-.316-.52c-.075-.127-.152-.253-.224-.383-.107-.192-.209-.388-.31-.585s-.182-.372-.27-.56c-.057-.121-.115-.241-.169-.364-.094-.213-.182-.429-.268-.647-.079-.2-.152-.405-.224-.61-.038-.109-.079-.217-.116-.327q-.115-.351-.217-.708c-.064-.225-.12-.453-.175-.681-.022-.088-.046-.175-.066-.263-.057-.254-.11-.51-.156-.768s-.089-.542-.125-.816c-.006-.043-.014-.085-.019-.128q-.053-.41-.086-.825c-.012-.145-.014-.292-.022-.437h6.976a32.937,32.937,0,0,0,1.59,9.541Q20.2,52.831,18,53.274Zm4.616-21.815A32.937,32.937,0,0,0,21.027,41H14.051c.015-.269.014-.542.041-.808.019-.2.06-.387.086-.582.052-.394.1-.789.18-1.175.045-.228.112-.447.167-.672.083-.344.161-.69.264-1.026.072-.234.163-.46.244-.69.111-.315.217-.633.345-.94.1-.231.21-.454.316-.681.03-.065.062-.129.093-.194.137-.285.275-.569.425-.845.041-.075.087-.146.129-.221.114-.2.234-.4.355-.594.076-.123.147-.251.226-.372.165-.253.341-.5.517-.738.121-.167.243-.332.369-.494.064-.082.131-.16.2-.241C19.469,31.019,21.01,31.266,22.617,31.459ZM19.6,29c.1-.1.2-.19.3-.283.071-.064.144-.124.215-.187.3-.261.6-.517.907-.757l.015-.013c.067-.051.135-.1.2-.15s.116-.083.174-.125c.322-.236.648-.465.984-.678.043-.028.089-.054.133-.081.082-.052.167-.1.251-.15l.078-.045c.278-.165.56-.325.846-.475.157-.082.314-.161.473-.238.083-.041.168-.077.252-.116.225-.105.451-.207.68-.3.121-.05.241-.1.363-.151.092-.036.186-.068.279-.1.115-.043.233-.081.349-.121l.043-.015a16.944,16.944,0,0,0-2.789,4.514C22.063,29.373,20.8,29.206,19.6,29Zm6.157,29.863c-.105-.039-.211-.075-.315-.116-.158-.062-.314-.128-.47-.2-.27-.115-.537-.239-.8-.368-.1-.048-.2-.094-.3-.144-.142-.072-.281-.147-.42-.223-.264-.143-.524-.3-.781-.453-.1-.058-.193-.114-.287-.174q-.192-.123-.38-.25c-.258-.173-.51-.355-.759-.542-.086-.064-.172-.126-.257-.191q-.172-.135-.342-.274c-.257-.209-.506-.428-.752-.653-.067-.061-.134-.12-.2-.182-.032-.029-.062-.06-.094-.09,1.2-.21,2.469-.377,3.761-.523A16.951,16.951,0,0,0,26.144,59C26.014,58.95,25.882,58.907,25.752,58.859ZM31,59.875c-2.141-.5-4.077-2.577-5.511-5.613,1.784-.147,3.634-.22,5.511-.242Zm0-7.864c-2.157.026-4.273.13-6.31.315A30.661,30.661,0,0,1,23.026,43H31ZM31,41H23.026a30.661,30.661,0,0,1,1.664-9.326c2.037.185,4.153.289,6.31.315Zm0-11.02c-1.877-.022-3.727-.095-5.511-.242,1.434-3.036,3.37-5.114,5.511-5.613Zm2,29.9V54.02c1.877.022,3.727.095,5.511.242C37.077,57.3,35.141,59.376,33,59.875Zm5.511-30.137c-1.784.147-3.634.22-5.511.242V24.125C35.141,24.624,37.077,26.7,38.511,29.738Zm-.655-4.733.043.015c.116.04.234.078.349.121s.2.072.3.111.2.084.3.125c.243.1.482.21.721.321.088.041.177.079.264.122l.041.019q.2.1.4.2c.294.153.582.317.867.486.056.033.112.063.167.1l.063.037c.077.048.156.093.232.142.336.213.662.442.984.678.058.042.117.082.174.125s.139.1.208.155c.313.242.616.5.916.765.075.067.153.13.227.2l.056.051c.08.073.16.146.238.221-1.2.21-2.469.377-3.761.523A16.944,16.944,0,0,0,37.856,25.005Zm1.454,6.669A30.661,30.661,0,0,1,40.974,41H33V31.989C35.157,31.963,37.273,31.859,39.31,31.674ZM40.974,43a30.661,30.661,0,0,1-1.664,9.326c-2.037-.185-4.153-.289-6.31-.315V43Zm3.138,12.276c-.291.266-.584.529-.891.774-.149.12-.306.229-.46.344-.3.229-.612.456-.93.665-.162.106-.331.2-.5.3-.325.2-.65.4-.986.572-.168.089-.343.165-.515.248-.344.168-.69.335-1.044.48-.178.073-.362.132-.542.2-.13.048-.262.091-.392.137a16.951,16.951,0,0,0,2.789-4.515c1.294.146,2.562.313,3.765.524C44.313,55.1,44.211,55.186,44.112,55.276Zm5.815-11.839c-.022.281-.052.561-.087.839-.04.312-.087.623-.143.93-.049.273-.1.543-.165.812q-.1.454-.232.9c-.075.262-.153.522-.239.78-.1.292-.206.58-.318.865-.1.251-.2.5-.308.745-.126.28-.261.554-.4.826-.121.237-.243.474-.373.7-.151.267-.313.526-.477.784-.141.222-.282.444-.433.66-.176.251-.362.494-.55.736-.067.086-.136.171-.2.256q-2.2-.439-4.616-.733A32.937,32.937,0,0,0,42.973,43h6.976C49.941,43.145,49.939,43.292,49.927,43.437ZM42.973,41a32.937,32.937,0,0,0-1.59-9.541c1.608-.193,3.148-.44,4.614-.732.064.079.129.157.192.237.132.17.261.343.387.517.172.239.344.477.505.725.088.134.167.275.251.412A17.889,17.889,0,0,1,49.949,41ZM31.327,10c11.078,0,20.394,4.966,26.3,14a34.049,34.049,0,0,1-6.282,7.307c-.546.469-1.109.916-1.683,1.338-.14-.262-.295-.512-.446-.768-.128-.216-.256-.432-.391-.643-.161-.25-.324-.5-.495-.738s-.342-.465-.519-.693c-.2-.264-.407-.525-.624-.778-.012-.016-.019-.034-.032-.049-.279-.325-.571-.637-.868-.942-.122-.125-.248-.247-.373-.369l-.036-.035A13.55,13.55,0,0,0,46,26a14,14,0,0,0-26.927-5.385l1.846.77a11.984,11.984,0,0,1,16.65-6.005,2.992,2.992,0,1,0,4.221,3.7A11.927,11.927,0,0,1,44,26v.015c-.2-.153-.414-.3-.623-.443-.116-.08-.23-.162-.347-.24s-.226-.143-.339-.214l-.044-.029q-.427-.27-.867-.517c-.135-.076-.268-.154-.405-.227-.442-.236-.893-.45-1.35-.651-.155-.069-.309-.136-.465-.2-.278-.114-.56-.22-.843-.321l-.055-.02c-.172-.061-.343-.121-.516-.177-.152-.049-.3-.095-.457-.14-.243-.073-.488-.14-.734-.2l-.319-.079c-.157-.038-.315-.077-.473-.111-.122-.025-.244-.046-.367-.07-.19-.037-.379-.078-.57-.109l-.017,0c-.1-.016-.2-.026-.306-.041s-.232-.033-.349-.048c-.151-.02-.3-.042-.452-.058-.065-.007-.132-.01-.2-.017l-.1-.008c-.1-.009-.2-.019-.3-.027l-.244-.017C32.844,22.017,32.423,22,32,22s-.844.017-1.263.044l-.243.017c-.1.008-.2.018-.3.027l-.1.008c-.065.007-.132.01-.2.017-.152.016-.3.039-.454.058-.115.015-.23.03-.344.047s-.206.026-.309.042l-.017,0c-.191.031-.38.072-.57.109-.123.024-.245.045-.367.07-.158.034-.316.073-.473.111l-.319.079c-.246.064-.491.131-.734.2-.153.045-.3.091-.457.14-.176.057-.351.118-.525.18l-.03.011c-.288.1-.575.211-.859.327-.156.064-.31.131-.465.2-.457.2-.908.415-1.35.651-.137.073-.27.151-.405.227q-.439.247-.867.517l-.044.029c-.113.071-.228.14-.339.214s-.231.16-.347.24c-.209.145-.419.29-.623.443V26a12.07,12.07,0,0,1,.321-2.771l-1.947-.458A14.069,14.069,0,0,0,18,26a13.55,13.55,0,0,0,.118,1.631l-.036.035c-.125.122-.251.244-.373.369-.3.3-.589.617-.868.942-.013.015-.02.033-.032.049-.22.257-.428.524-.635.792-.172.223-.343.446-.506.676s-.337.492-.5.744c-.134.209-.261.423-.388.638-.151.257-.307.509-.448.773A31.133,31.133,0,0,1,6.006,24C12.118,14.581,20.407,10,31.327,10ZM40,18a1,1,0,1,1-1-1A1,1,0,0,1,40,18Z"></path><rect x="4" y="56" width="2" height="2"></rect><rect x="4" y="60" width="2" height="2"></rect><rect x="6" y="58" width="2" height="2"></rect><rect x="2" y="58" width="2" height="2"></rect><rect x="58" y="56" width="2" height="2"></rect><rect x="58" y="60" width="2" height="2"></rect><rect x="60" y="58" width="2" height="2"></rect><rect x="56" y="58" width="2" height="2"></rect></svg>