<svg xmlns="http://www.w3.org/2000/svg" xmlns:xlink="http://www.w3.org/1999/xlink" version="1.1" x="0px" y="0px" viewBox="0 0 100 100" style="enable-background:new 0 0 100 100;" xml:space="preserve"><g><path d="M85.1477585,83.8521194h-70.295517C9.4195814,83.8521194,5,79.4321899,5,73.9998856V26.0001163   c0-5.4326572,4.4195814-9.8522396,9.8522406-9.8522396h70.295517C90.5800705,16.1478767,95,20.5674591,95,26.0001163v47.9997711   C95,79.4321899,90.5800705,83.8521194,85.1477585,83.8521194z M14.8522406,17.5847054   c-4.6402283,0-8.415411,3.7751846-8.415411,8.415411v47.9997711c0,4.6402283,3.7751832,8.4154053,8.415411,8.4154053h70.295517   c4.6402283,0,8.4154129-3.775177,8.4154129-8.4154053V26.0001163c0-4.6402264-3.7751846-8.415411-8.4154129-8.415411H14.8522406z"></path></g><path d="M84.2888184,59.894043H65.8916016v-4.9854126h4.8381958c1.1903076,0,2.1552124-0.9649048,2.1552124-2.1552124v-5.5064697  c0-1.1903076-0.9649048-2.1552124-2.1552124-2.1552124h-4.8381958v-21.855835c0-0.3967285-0.3213501-0.7184448-0.7184448-0.7184448  s-0.7183838,0.3217163-0.7183838,0.7184448v21.855835H35.5452271v-4.9854126h20.3204346  c1.1903076,0,2.1552734-0.9649658,2.1552734-2.1552734v-5.5064087c0-1.1903076-0.9649658-2.1552124-2.1552734-2.1552124H35.5452271  v-7.0535278c0-0.3967285-0.3216553-0.7184448-0.7183838-0.7184448s-0.7184448,0.3217163-0.7184448,0.7184448v7.0535278H15.7113647  c-1.1903076,0-2.1552734,0.9649048-2.1552734,2.1552124v5.5064087c0,1.1903076,0.9649658,2.1552734,2.1552734,2.1552734h18.3970337  v4.9854126h-3.532959c-1.1903076,0-2.1552124,0.9649048-2.1552124,2.1552124v5.5064697  c0,1.1903076,0.9649048,2.1552124,2.1552124,2.1552124h3.532959v21.8554688c0,0.3970947,0.3217163,0.7183838,0.7184448,0.7183838  s0.7183838-0.3212891,0.7183838-0.7183838V54.9086304h28.9095459v4.9854126h-6.46875  c-1.1903076,0-2.1552734,0.9649658-2.1552734,2.1552734v5.5064087c0,1.1903076,0.9649658,2.1552124,2.1552734,2.1552124h6.46875  v7.0531616c0,0.3970947,0.3212891,0.7183838,0.7183838,0.7183838s0.7184448-0.3212891,0.7184448-0.7183838v-7.0531616h18.3972168  c1.1903076,0,2.1552124-0.9649048,2.1552124-2.1552124v-5.5064087C86.4440308,60.8590088,85.479126,59.894043,84.2888184,59.894043z  "></path></svg>