<svg xmlns="http://www.w3.org/2000/svg" xmlns:xlink="http://www.w3.org/1999/xlink" version="1.1" x="0px" y="0px" viewBox="0 0 100 100" style="enable-background:new 0 0 100 100;" xml:space="preserve"><circle cx="48.6" cy="90.4" r="3.3"></circle><path d="M42.7,8.3c-0.7,0-1.3,0.6-1.3,1.3c0,0.7,0.6,1.3,1.3,1.3h11.8c0.7,0,1.3-0.6,1.3-1.3c0-0.7-0.6-1.3-1.3-1.3  H42.7z"></path><path d="M85.1,36.8h-9V9.5c0-4.5-3.7-8.2-8.2-8.2H29.3c-4.5,0-8.2,3.7-8.2,8.2v81.4c0,4.5,3.7,8.2,8.2,8.2h38.6  c4.5,0,8.2-3.7,8.2-8.2V65.6h9c1.8,0,3.3-1.6,3.3-3.5V40.3C88.4,38.3,86.9,36.8,85.1,36.8z M24.2,9.5c0-2.8,2.3-5.1,5.1-5.1h38.6  c2.8,0,5.1,2.3,5.1,5.1v4.6H24.2V9.5z M73,90.8c0,2.8-2.3,5.1-5.1,5.1H29.3c-2.8,0-5.1-2.3-5.1-5.1v-5.7H73V90.8z M73,82H24.2V17.2  H73v19.5H47.2c-1.8,0-3.3,1.6-3.3,3.5v21.8c0,1.9,1.5,3.5,3.3,3.5h3.8l1.6,9.2l9-9.2H73V82z M85.6,62.1c0,0.2-0.2,0.4-0.5,0.4H60.6  l-6.2,6.3l-1.1-6.3h-6.1c-0.3,0-0.5-0.2-0.5-0.4V40.3c0-0.2,0.2-0.4,0.5-0.4h37.9c0.3,0,0.5,0.2,0.5,0.4V62.1z"></path><path d="M96.2,29.2h-1.5v-1.5c0-0.5-0.4-1-1-1c-0.5,0-1,0.4-1,1v1.5h-1.5c-0.5,0-1,0.4-1,1s0.4,1,1,1h1.5v1.5  c0,0.5,0.4,1,1,1c0.5,0,1-0.4,1-1v-1.5h1.5c0.5,0,1-0.4,1-1S96.7,29.2,96.2,29.2z"></path><path d="M15.2,67.8h-1.5v-1.5c0-0.5-0.4-1-1-1c-0.5,0-1,0.4-1,1v1.5h-1.5c-0.5,0-1,0.4-1,1s0.4,1,1,1h1.5v1.5  c0,0.5,0.4,1,1,1c0.5,0,1-0.4,1-1v-1.5h1.5c0.5,0,1-0.4,1-1S15.7,67.8,15.2,67.8z"></path><path d="M13.2,19.2h-2.5v-2.5c0-0.7-0.6-1.4-1.4-1.4c-0.7,0-1.4,0.6-1.4,1.4v2.5H5.4c-0.7,0-1.4,0.6-1.4,1.4  c0,0.7,0.6,1.4,1.4,1.4H8v2.5c0,0.7,0.6,1.4,1.4,1.4c0.7,0,1.4-0.6,1.4-1.4v-2.5h2.5c0.7,0,1.4-0.6,1.4-1.4  C14.5,19.8,13.9,19.2,13.2,19.2z"></path><circle cx="4.3" cy="46.7" r="1.8"></circle><circle cx="87.2" cy="83.6" r="1.8"></circle><circle cx="85.7" cy="16.3" r="2.2"></circle><path d="M73.3,46.7c0-0.3-0.1-0.6-0.4-0.9c-0.5-0.5-1.3-0.5-1.8,0l-6.7,6.7l-3.2-3.2c-0.2-0.2-0.6-0.4-0.9-0.4  c-0.3,0-0.6,0.1-0.9,0.4c-0.2,0.2-0.4,0.5-0.4,0.9c0,0.3,0.1,0.6,0.4,0.9l4.1,4.1c0.5,0.5,1.3,0.5,1.8,0l7.6-7.6  C73.1,47.3,73.3,47,73.3,46.7z"></path></svg>