<svg xmlns="http://www.w3.org/2000/svg" viewBox="0 0 64 64" x="0px" y="0px"><g><path d="M61,8H3A1,1,0,0,0,2,9V41a1,1,0,0,0,1,1H32v1a1,1,0,0,0,1,1h3V59a2.987,2.987,0,0,0,5,2.22A2.987,2.987,0,0,0,46,59V42H61a1,1,0,0,0,1-1V9A1,1,0,0,0,61,8ZM36,42H34V36h2Zm8,17a1,1,0,0,1-2,0V49H40V59a1,1,0,0,1-2,0V46h6Zm0-18v3H38V36h6Zm-5-9a2,2,0,1,1,2,2A2,2,0,0,1,39,32Zm9,8H46V29a1,1,0,0,1,2,0Zm12,0H50V29a3,3,0,0,0-6,0v.382A3.979,3.979,0,0,0,37.556,34H33a1,1,0,0,0-1,1v5H4V10H60Z"></path><path d="M23.293,21.293l-13,13,1.414,1.414L24,23.414l7.293,7.293a1,1,0,0,0,1.3.1L46,20.974V24h2V19a1,1,0,0,0-1-1H41v2h2.945L32.1,28.687l-7.394-7.394A1,1,0,0,0,23.293,21.293Z"></path><path d="M51,20h6a1,1,0,0,0,1-1V13a1,1,0,0,0-1.707-.707L54,14.586l-2.293-2.293A1,1,0,0,0,50,13v6A1,1,0,0,0,51,20Zm1-4.586,1.293,1.293a1,1,0,0,0,1.414,0L56,15.414V18H52Z"></path><path d="M10,27a3,3,0,1,0-3-3A3,3,0,0,0,10,27Zm0-4a1,1,0,1,1-1,1A1,1,0,0,1,10,23Z"></path><path d="M21,19a3,3,0,1,0-3-3A3,3,0,0,0,21,19Zm0-4a1,1,0,1,1-1,1A1,1,0,0,1,21,15Z"></path><polygon points="30.707 19.707 32 18.414 33.293 19.707 34.707 18.293 33.414 17 34.707 15.707 33.293 14.293 32 15.586 30.707 14.293 29.293 15.707 30.586 17 29.293 18.293 30.707 19.707"></polygon><polygon points="25.293 30.293 24 31.586 22.707 30.293 21.293 31.707 22.586 33 21.293 34.293 22.707 35.707 24 34.414 25.293 35.707 26.707 34.293 25.414 33 26.707 31.707 25.293 30.293"></polygon></g></svg>