<svg xmlns="http://www.w3.org/2000/svg" xmlns:xlink="http://www.w3.org/1999/xlink" version="1.1" x="0px" y="0px" viewBox="0 0 100 100" enable-background="new 0 0 100 100" xml:space="preserve"><circle cx="73.716" cy="24.8" r="1.8"></circle><circle cx="80.916" cy="24.8" r="1.8"></circle><circle cx="88.116" cy="24.8" r="1.8"></circle><path d="M95.316,15.8h-86.4c-0.994,0-1.8,0.806-1.8,1.8v12.6v3.6v59.4c0,0.994,0.806,1.8,1.8,1.8h86.4c0.994,0,1.8-0.806,1.8-1.8  V33.8v-3.6V17.6C97.116,16.606,96.31,15.8,95.316,15.8z M93.516,91.4h-82.8V33.8h82.8V91.4z M10.716,30.2V19.4h82.8v10.8H10.716z"></path><path d="M70.116,50h-36c-0.994,0-1.8,0.806-1.8,1.8v21.6c0,0.994,0.806,1.8,1.8,1.8h36c0.994,0,1.8-0.806,1.8-1.8V51.8  C71.916,50.806,71.11,50,70.116,50z M35.916,53.6h32.4l0,0l-16.2,7.2L35.916,53.6L35.916,53.6z M68.316,71.6h-32.4l0-14.4  l15.66,7.117c0.17,0.053,0.352,0.083,0.54,0.083c0.181,0,0.521-0.077,0.521-0.077L68.316,57.2L68.316,71.6z"></path></svg>