<svg xmlns="http://www.w3.org/2000/svg" xmlns:xlink="http://www.w3.org/1999/xlink" version="1.1" x="0px" y="0px" viewBox="0 0 64 64" style="enable-background:new 0 0 64 64;" xml:space="preserve"><path d="M63.394,3.081l-7-3c-0.308-0.132-0.663-0.102-0.944,0.084C55.169,0.35,55,0.664,55,1v6v23H37v-7c0-2.757-2.321-5-5.078-5H26  v-3h4.922C33.679,15,36,12.757,36,10V1c0-0.552-0.525-1-1.078-1h-4C30.369,0,30,0.448,30,1v8h-4.89c0.513-0.884,0.812-1.907,0.812-3  c0-3.309-2.691-6-6-6s-6,2.691-6,6c0,1.294,0.416,2.49,1.115,3.471l-5.572,5.572C8.52,15.987,8,17.243,8,18.579  c0,1.336,0.52,2.591,1.465,3.535l3.671,3.672c0.188,0.188,0.441,0.293,0.707,0.293c0.266,0,0.559-0.105,0.746-0.293L16,24.414V39  c0,0.552,0.369,1,0.922,1h0.104C16.391,40.838,16,41.87,16,43s0.391,2.162,1.026,3H13c-2.757,0-5,2.243-5,5  c0,1.13,0.391,2.162,1.026,3H5c-2.757,0-5,2.243-5,5s2.243,5,5,5h28c0.379,0,0.725-0.214,0.894-0.553  c0.169-0.339,0.133-0.744-0.095-1.047c-1.405-1.874-1.477-4.437-0.251-6.4H41c0.379,0,0.725-0.214,0.894-0.553  c0.169-0.339,0.133-0.744-0.095-1.047c-1.405-1.874-1.477-4.438-0.251-6.4H49c0.379,0,0.725-0.214,0.894-0.553  c0.169-0.339,0.133-0.744-0.095-1.047c-1.405-1.874-1.477-4.437-0.251-6.4H57c0.379,0,0.725-0.214,0.894-0.553  c0.169-0.339,0.133-0.744-0.095-1.047c-1.501-2.002-1.501-4.798,0-6.8c0.227-0.303,0.264-0.708,0.095-1.047  C57.725,30.214,57.379,30,57,30V7.659l6.394-2.74C63.762,4.762,64,4.4,64,4S63.762,3.238,63.394,3.081z M19.922,2  c2.206,0,4,1.794,4,4s-1.794,4-4,4c-2.206,0-4-1.794-4-4S17.716,2,19.922,2z M16,19.744l-1.165-1.165L16,17.414V19.744z   M16.215,14.293l-3.579,3.579c-0.188,0.188-0.293,0.442-0.293,0.707c0,0.265,0.105,0.52,0.293,0.707l2.793,2.793l-1.586,1.586  L10.879,20.7C10.312,20.133,10,19.38,10,18.579s0.312-1.555,0.879-2.122l5.572-5.572C17.432,11.584,18.628,12,19.922,12  c1.223,0,2.36-0.369,3.309-1h7.691C31.475,11,32,10.552,32,10V2h2v8c0,1.654-1.424,3-3.078,3h-6C24.369,13,24,13.448,24,14v5  c0,0.552,0.369,1,0.922,1h7C33.576,20,35,21.346,35,23v7h-3v-6c0-0.552-0.525-1-1.078-1h-9C21.369,23,21,23.448,21,24v14h-3V15  c0-0.404-0.282-0.769-0.656-0.924C16.97,13.921,16.501,14.007,16.215,14.293z M29,30c-2.757,0-5,2.243-5,5  c0,1.13,0.391,2.162,1.026,3H23V25h7v5H29z M32,58v2h-1.25c0.089,0.683,0.26,1.357,0.532,2H5c-1.654,0-3-1.346-3-3s1.346-3,3-3h8  h18.281c-0.271,0.643-0.443,1.317-0.532,2H32z M40,50v2h-1.25c0.089,0.683,0.261,1.357,0.532,2H33H13c-1.654,0-3-1.346-3-3  s1.346-3,3-3h8h18.281c-0.271,0.643-0.443,1.317-0.532,2H40z M48,42v2h-1.25c0.089,0.683,0.26,1.357,0.531,2H41H21  c-1.654,0-3-1.346-3-3s1.346-3,3-3h0.922H29h18.281c-0.271,0.643-0.443,1.317-0.531,2H48z M56,36h-1.25  c0.089,0.683,0.26,1.357,0.532,2H49H29c-1.654,0-3-1.346-3-3s1.346-3,3-3h1.922h5h19.359c-0.271,0.643-0.443,1.317-0.532,2H56V36z   M57,5.484V2.517L60.461,4L57,5.484z"></path><rect x="4" y="7" width="2" height="2"></rect><rect x="8" y="7" width="2" height="2"></rect><rect y="7" width="2" height="2"></rect><path d="M40.758,7.97c2.108,0.527,3.745,2.165,4.272,4.272C45.141,12.688,45.541,13,46,13s0.859-0.312,0.97-0.757  c0.527-2.108,2.164-3.745,4.272-4.272C51.687,7.859,52,7.459,52,7s-0.313-0.859-0.758-0.97c-2.108-0.527-3.745-2.165-4.272-4.273  C46.859,1.313,46.459,1,46,1s-0.859,0.312-0.97,0.757c-0.527,2.108-2.164,3.745-4.272,4.273C40.312,6.141,40,6.541,40,7  S40.312,7.859,40.758,7.97z M46,4.523C46.629,5.525,47.476,6.371,48.477,7C47.476,7.629,46.629,8.476,46,9.478  C45.371,8.476,44.524,7.629,43.522,7C44.524,6.371,45.371,5.525,46,4.523z"></path><polygon points="7,60 30.75,60 32,60 32,58 30.75,58 7,58 "></polygon><polygon points="23,52 38.75,52 40,52 40,50 38.75,50 23,50 "></polygon><polygon points="38,44 46.75,44 48,44 48,42 46.75,42 38,42 "></polygon><rect x="24" y="42" width="12" height="2"></rect><polygon points="39,34 39,36 54.75,36 56,36 56,34 54.75,34 "></polygon><rect x="19" y="50" width="2" height="2"></rect><rect x="15" y="50" width="2" height="2"></rect><rect x="35" y="34" width="2" height="2"></rect><rect x="31" y="34" width="2" height="2"></rect></svg>