<svg xmlns="http://www.w3.org/2000/svg" xmlns:xlink="http://www.w3.org/1999/xlink" version="1.1" x="0px" y="0px" viewBox="0 0 100 100" enable-background="new 0 0 100 100" xml:space="preserve"><path d="M59.5,74.2c0,0,3.1,5.1-2.3,9.1c0,0,2.5,7-7.5,9.1C46.7,93,43,93,39.5,92.7c-8.7,0.2-17.4-1-17.4-1l-5.6-24.5  c1.7-1,2.5-2.2,2.9-3c0.1-0.2,0.2-0.5,0.3-0.8l0,0v0c0.5-1.1,1.2-2.6,2.4-3.8c5.6-4.3,11.5-20.5,11.5-20.5s-0.9-5.9,1.8-5.9  c2.7,0,9.3,1.8,5.4,13.7c-3.9,11.9,0,10.1,0,10.1c0.9-0.2,1.7-0.4,2.5-0.5l0,0c0,0,11.3-2.5,15.5,1.3c3.3,3.1,0.8,7.1,0.8,7.1  S64.3,69.2,59.5,74.2z M18,90c0.2,1.2-0.5,2.1-1.7,2.1h-14c-1.2,0-2-1-1.9-2.1l2.3-20.2c0.1-1.2,1.2-2.1,2.4-2.1h6  c1.2,0,2.3,0.9,2.6,2.1L18,90z M14.7,87.9c0-1.1-0.9-2.1-2.1-2.1c-1.1,0-2.1,0.9-2.1,2.1c0,1.1,0.9,2.1,2.1,2.1  C13.7,89.9,14.7,89,14.7,87.9z M99.5,10.1v28.7c0,1.7-1.3,3-3,3h-30L56.1,52.2c-0.5,0.5-1.3,0.1-1.3-0.5v-9.9h-4.3c-1.7,0-3-1.3-3-3  V10.1c0-1.7,1.3-3,3-3h46C98.2,7.1,99.5,8.4,99.5,10.1z M82.7,20.4l-3.5-3.5l-8,8l-3.4-3.4L64.3,25l3.4,3.4l3.5,3.5l3.5-3.5  L82.7,20.4z"></path></svg>