<svg xmlns:dc="http://purl.org/dc/elements/1.1/" xmlns:cc="http://creativecommons.org/ns#" xmlns:rdf="http://www.w3.org/1999/02/22-rdf-syntax-ns#" xmlns:svg="http://www.w3.org/2000/svg" xmlns="http://www.w3.org/2000/svg" xmlns:sodipodi="http://sodipodi.sourceforge.net/DTD/sodipodi-0.dtd" xmlns:inkscape="http://www.inkscape.org/namespaces/inkscape" viewBox="0 0 100 100" version="1.1" x="0px" y="0px"><g transform="translate(0,-952.36216)"><path d="m 23.937501,956.29962 0,5 -4.875003,0 0,5.125 -5,0 0,82.00008 c 20.666703,0 41.333303,0 62.000003,0 l 0,-5.125 5,0 0,-5 4.875,0 0,-66.41414 -15.5859,-15.58594 z m 2,2 43,0 0,6.46095 -3.4609,-3.46095 -39.5391,0 z m 45,1.41406 11.584,11.58594 -7.0449,0 -4.5391,-4.53905 z m -49.875,3.58594 43,0 0,6.71095 -3.5859,-3.58595 -39.4141,0 z m 45,1.41406 11.584,11.58594 -7.2949,0 -4.2891,-4.28905 z m -50.000003,3.71094 43.000003,0 0,15 15,0 0,63.00008 -58.000003,0 z m 45.000003,1.41406 11.584,11.58594 -11.584001,0 z m 16.4141,3.46094 6.4609,0 0,63.00008 -2.875,0 0,-59.41414 z m -5.125,5 6.7109,0 0,63.00008 -3,0 0,-59.28914 z M 42.4375,982.99298 c -7.0109,0 -12.714799,5.70391 -12.714799,12.71482 0,7.011 5.7039,12.7149 12.714799,12.7149 7.011,0 12.716801,-5.7039 12.716801,-12.7149 0,-7.0109 -5.7058,-12.71481 -12.716801,-12.71481 z m 0,1.99612 c 5.931601,0 10.7187,4.7871 10.7187,10.7187 0,5.9316 -4.787099,10.7188 -10.7187,10.7188 -5.9316,0 -10.7168,-4.7872 -10.7168,-10.7188 0,-5.9316 4.7852,-10.7187 10.7168,-10.7187 z m 0,4.4297 c -1.9295,0 -3.5117,1.58219 -3.5117,3.5117 0,1.9295 1.5824,3.5117 3.5117,3.5117 1.9294,0 3.5137,-1.5822 3.5137,-3.5117 0,-1.9295 -1.584199,-3.5117 -3.5137,-3.5117 z m 0,1.99609 c 0.8513,0 1.515601,0.66431 1.515601,1.5156 0,0.8512 -0.664101,1.5156 -1.515601,1.5156 -0.8514,0 -1.5156,-0.6644 -1.5156,-1.5156 0,-0.8513 0.6644,-1.5156 1.5156,-1.5156 z m -6.0254,4.3398 0,0.2168 0,6.02731 12.0527,0 0,-6.24411 -1.9961,0 0,4.24611 -8.0605,0 0,-4.24611 z m -9.8125,18.48051 0,0.2188 0,1.7793 31.6777,0 0,-1.9981 z m 0,7.8125 0,0.2188 0,1.7793 31.6777,0 0,-1.9981 z m 0,7.8106 0,0.2187 0,1.7793 31.6777,0 0,-1.998 z" style="color:#000000;font-style:normal;font-variant:normal;font-weight:normal;font-stretch:normal;font-size:medium;line-height:normal;font-family:sans-serif;text-indent:0;text-align:start;text-decoration:none;text-decoration-line:none;text-decoration-style:solid;text-decoration-color:#000000;letter-spacing:normal;word-spacing:normal;text-transform:none;direction:ltr;block-progression:tb;writing-mode:lr-tb;baseline-shift:baseline;text-anchor:start;white-space:normal;clip-rule:nonzero;display:inline;overflow:visible;visibility:visible;opacity:1;isolation:auto;mix-blend-mode:normal;color-interpolation:sRGB;color-interpolation-filters:linearRGB;solid-color:#000000;solid-opacity:1;fill:#000000;fill-opacity:1;fill-rule:evenodd;stroke:none;stroke-width:0.435;stroke-linecap:butt;stroke-linejoin:miter;stroke-miterlimit:4;stroke-dasharray:none;stroke-dashoffset:0;stroke-opacity:1;color-rendering:auto;image-rendering:auto;shape-rendering:auto;text-rendering:auto;enable-background:accumulate"></path></g></svg>