<svg xmlns="http://www.w3.org/2000/svg" xmlns:xlink="http://www.w3.org/1999/xlink" version="1.1" x="0px" y="0px" viewBox="0 0 32 32" enable-background="new 0 0 32 32" xml:space="preserve"><g><path d="M0,24.467h12.371v-2H2V7.711l13.479,8.212c0.16,0.097,0.34,0.146,0.521,0.146c0.182,0,0.362-0.049,0.523-0.148L30,7.648   v15.819h2v-21.5H0V24.467z M2,3.967h28v1.335l-14.002,8.596L2,5.369V3.967z"></path><path d="M24.565,20.089c-0.506-0.234-1.245-0.409-2.082-0.409c-2.705,0-4.612,2.199-4.612,4.612c0,1.537,0.973,2.452,2.102,2.452   c1.168,0,2.063-0.564,2.744-1.712h0.078c-0.058,1.187,0.662,1.712,1.44,1.712c1.829,0,3.464-1.712,3.464-4.631   c0-3.25-2.277-5.624-5.663-5.624c-4.32,0-7.103,3.464-7.103,7.473c0,3.736,2.705,6.071,5.896,6.071   c1.304,0,2.394-0.214,3.464-0.778l-0.311-0.837c-0.798,0.448-1.829,0.681-2.938,0.681c-2.88,0-5.001-2.004-5.001-5.254   c0-3.95,2.666-6.461,5.838-6.461c3.016,0,4.709,2.024,4.709,4.846c0,2.257-1.109,3.581-2.102,3.561   c-0.642-0.019-0.876-0.701-0.584-2.18L24.565,20.089z M22.813,23.047c-0.214,1.206-1.245,2.647-2.374,2.647   c-0.856,0-1.284-0.623-1.284-1.479c0-1.888,1.382-3.503,3.094-3.503c0.448,0,0.778,0.078,0.973,0.136L22.813,23.047z"></path></g><g display="none"><circle display="inline" fill="#000000" cx="11.917" cy="21.583" r="16"></circle><g display="inline"><path fill="#000000" d="M11.917,23.464c-0.124,0-0.248-0.034-0.358-0.1L1.246,17.081l0.716-1.174l9.953,6.064l9.954-6.111    l0.72,1.172l-10.312,6.331C12.166,23.43,12.042,23.464,11.917,23.464z"></path><polygon fill="#000000" points="9.422,29.238 0.917,29.238 0.917,13.769 22.917,13.769 22.917,28.55 21.542,28.55 21.542,15.144     2.292,15.144 2.292,27.863 9.422,27.863   "></polygon><path fill="#000000" d="M17.618,32.529c-0.736,0.388-1.485,0.535-2.381,0.535c-2.194,0-4.054-1.605-4.054-4.174    c0-2.756,1.913-5.137,4.883-5.137c2.328,0,3.893,1.632,3.893,3.866c0,2.007-1.124,3.184-2.381,3.184    c-0.535,0-1.03-0.361-0.99-1.177h-0.054c-0.468,0.789-1.084,1.177-1.886,1.177c-0.776,0-1.445-0.629-1.445-1.686    c0-1.659,1.311-3.171,3.171-3.171c0.575,0,1.084,0.12,1.432,0.281L17.35,28.65c-0.201,1.017-0.04,1.485,0.401,1.498    c0.682,0.013,1.445-0.896,1.445-2.448c0-1.94-1.164-3.331-3.238-3.331c-2.181,0-4.014,1.726-4.014,4.442    c0,2.234,1.458,3.612,3.438,3.612c0.763,0,1.472-0.161,2.02-0.468L17.618,32.529z M16.882,26.75    c-0.134-0.04-0.361-0.094-0.669-0.094c-1.177,0-2.127,1.11-2.127,2.408c0,0.589,0.294,1.017,0.883,1.017    c0.776,0,1.485-0.99,1.632-1.819L16.882,26.75z"></path></g></g><g display="none"><g display="inline"><path fill="#000000" d="M13.25,5.917c8.271,0,15,6.729,15,15s-6.729,15-15,15s-15-6.729-15-15S4.979,5.917,13.25,5.917     M13.25,4.917c-8.837,0-16,7.163-16,16s7.163,16,16,16s16-7.163,16-16S22.087,4.917,13.25,4.917L13.25,4.917z"></path></g><g display="inline"><path fill="#000000" d="M13.25,22.798c-0.124,0-0.248-0.034-0.358-0.1L2.58,16.414l0.716-1.174l9.953,6.064l9.954-6.111    l0.72,1.172L13.61,22.696C13.499,22.764,13.375,22.798,13.25,22.798z"></path><polygon fill="#000000" points="10.755,28.571 2.25,28.571 2.25,13.102 24.25,13.102 24.25,27.883 22.875,27.883 22.875,14.477     3.625,14.477 3.625,27.196 10.755,27.196   "></polygon><path fill="#000000" d="M18.951,31.863c-0.736,0.388-1.485,0.535-2.381,0.535c-2.194,0-4.054-1.605-4.054-4.174    c0-2.756,1.913-5.137,4.883-5.137c2.328,0,3.893,1.632,3.893,3.866c0,2.007-1.124,3.184-2.381,3.184    c-0.535,0-1.03-0.361-0.99-1.177h-0.054c-0.468,0.789-1.084,1.177-1.886,1.177c-0.776,0-1.445-0.629-1.445-1.686    c0-1.659,1.311-3.171,3.171-3.171c0.575,0,1.084,0.12,1.432,0.281l-0.455,2.422c-0.201,1.017-0.04,1.485,0.401,1.498    c0.682,0.013,1.445-0.896,1.445-2.448c0-1.94-1.164-3.331-3.238-3.331c-2.181,0-4.014,1.726-4.014,4.442    c0,2.234,1.458,3.612,3.438,3.612c0.763,0,1.472-0.161,2.02-0.468L18.951,31.863z M18.215,26.083    c-0.134-0.04-0.361-0.094-0.669-0.094c-1.177,0-2.127,1.11-2.127,2.408c0,0.589,0.294,1.017,0.883,1.017    c0.776,0,1.485-0.99,1.632-1.819L18.215,26.083z"></path></g></g><g display="none"><g display="inline"><circle fill="#000000" cx="12.917" cy="17.417" r="16"></circle></g><g display="inline"><path fill="#000000" d="M12.917,19.298c-0.124,0-0.248-0.034-0.358-0.1L2.246,12.914l0.716-1.174l9.953,6.064l9.954-6.111    l0.72,1.172l-10.312,6.331C13.166,19.264,13.042,19.298,12.917,19.298z"></path><polygon fill="#000000" points="10.422,25.071 1.917,25.071 1.917,9.602 23.917,9.602 23.917,24.383 22.542,24.383 22.542,10.977     3.292,10.977 3.292,23.696 10.422,23.696   "></polygon><path fill="#000000" d="M18.618,28.363c-0.736,0.388-1.485,0.535-2.381,0.535c-2.194,0-4.054-1.605-4.054-4.174    c0-2.756,1.913-5.137,4.883-5.137c2.328,0,3.893,1.632,3.893,3.866c0,2.007-1.124,3.184-2.381,3.184    c-0.535,0-1.03-0.361-0.99-1.177h-0.054c-0.468,0.789-1.084,1.177-1.886,1.177c-0.776,0-1.445-0.629-1.445-1.686    c0-1.659,1.311-3.171,3.171-3.171c0.575,0,1.084,0.12,1.432,0.281l-0.455,2.422c-0.201,1.017-0.04,1.485,0.401,1.498    c0.682,0.013,1.445-0.896,1.445-2.448c0-1.94-1.164-3.331-3.238-3.331c-2.181,0-4.014,1.726-4.014,4.442    c0,2.234,1.458,3.612,3.438,3.612c0.763,0,1.472-0.161,2.02-0.468L18.618,28.363z M17.882,22.583    c-0.134-0.04-0.361-0.094-0.669-0.094c-1.177,0-2.127,1.11-2.127,2.408c0,0.589,0.294,1.017,0.883,1.017    c0.776,0,1.485-0.99,1.632-1.819L17.882,22.583z"></path></g></g><g display="none"><path display="inline" fill="#000000" d="M16,16.069c-0.181,0-0.36-0.049-0.521-0.146l-15-9.139l1.041-1.708l14.478,8.82   l14.479-8.888l1.047,1.704l-15,9.208C16.362,16.02,16.182,16.069,16,16.069z"></path><polygon display="inline" fill="#000000" points="12.371,24.467 0,24.467 0,1.967 32,1.967 32,23.467 30,23.467 30,3.967 2,3.967    2,22.467 12.371,22.467  "></polygon><path display="inline" fill="#000000" d="M24.292,29.255c-1.07,0.564-2.16,0.778-3.464,0.778c-3.191,0-5.896-2.335-5.896-6.071   c0-4.009,2.783-7.473,7.103-7.473c3.386,0,5.663,2.374,5.663,5.624c0,2.919-1.635,4.631-3.464,4.631   c-0.778,0-1.498-0.525-1.44-1.712h-0.078c-0.681,1.148-1.576,1.712-2.744,1.712c-1.129,0-2.102-0.915-2.102-2.452   c0-2.413,1.907-4.612,4.612-4.612c0.837,0,1.576,0.175,2.082,0.409l-0.662,3.522c-0.292,1.479-0.058,2.16,0.584,2.179   c0.992,0.019,2.102-1.304,2.102-3.561c0-2.822-1.693-4.845-4.709-4.845c-3.172,0-5.838,2.51-5.838,6.461   c0,3.25,2.121,5.254,5.001,5.254c1.109,0,2.141-0.234,2.938-0.681L24.292,29.255z M23.222,20.848   c-0.195-0.058-0.525-0.136-0.973-0.136c-1.712,0-3.094,1.615-3.094,3.503c0,0.856,0.428,1.479,1.284,1.479   c1.129,0,2.16-1.44,2.374-2.647L23.222,20.848z"></path></g></svg>