<svg xmlns="http://www.w3.org/2000/svg" xmlns:xlink="http://www.w3.org/1999/xlink" version="1.1" x="0px" y="0px" viewBox="0 0 100 100" style="enable-background:new 0 0 100 100;" xml:space="preserve"><style type="text/css">
	.st0{fill:none;stroke:#000000;stroke-miterlimit:10;}
	.st1{fill:#FFFFFF;}
	.st2{fill:none;}
	.st3{fill:none;stroke:#010101;stroke-miterlimit:10;}
	.st4{fill:#010101;}
	.st5{fill:none;stroke:#000000;stroke-width:1.5;stroke-linecap:square;stroke-miterlimit:10;stroke-dasharray:0,3;}
	.st6{fill:none;stroke:#FFFFFF;stroke-width:0.25;stroke-miterlimit:10;}
	.st7{fill:none;stroke:#000000;stroke-width:2;stroke-miterlimit:10;}
	.st8{fill:none;stroke:#000000;stroke-width:1.2;stroke-miterlimit:10;}
</style><g><path class="st2" d="M24.4,25c-0.2,0-0.3,0.1-0.4,0.2c-0.2,0.2-0.2,0.6,0,0.8c0.2,0.2,0.6,0.2,0.9,0c0.2-0.2,0.2-0.6,0-0.8   C24.7,25,24.5,25,24.4,25z"></path><path class="st2" d="M15.7,25c-0.2,0-0.3,0.1-0.4,0.2c-0.2,0.2-0.2,0.6,0,0.8c0.2,0.2,0.6,0.2,0.8,0c0.2-0.2,0.2-0.6,0-0.8   C16,25,15.9,25,15.7,25z"></path><path class="st2" d="M91.9,22.8H12.1v5.5h79.8V22.8z M16.4,26.5c-0.3,0.3-0.6,0.4-1,0.4c-0.3,0-0.7-0.1-1-0.4   c-0.5-0.5-0.5-1.4,0-1.9c0.5-0.5,1.4-0.5,1.9,0c0.3,0.3,0.4,0.6,0.4,0.9C16.8,25.9,16.6,26.3,16.4,26.5z M20.7,26.5   c-0.3,0.3-0.6,0.4-1,0.4c-0.3,0-0.7-0.1-1-0.4c-0.5-0.5-0.5-1.4,0-1.9c0.5-0.5,1.4-0.5,1.9,0c0.3,0.3,0.4,0.6,0.4,0.9   C21.1,25.9,21,26.3,20.7,26.5z M25,26.5c-0.3,0.3-0.6,0.4-1,0.4c-0.3,0-0.7-0.1-1-0.4c-0.5-0.5-0.5-1.4,0-1.9   c0.5-0.5,1.4-0.5,1.9,0c0.3,0.3,0.4,0.6,0.4,0.9C25.4,25.9,25.3,26.3,25,26.5z"></path><path class="st2" d="M20,25c-0.2,0-0.3,0.1-0.4,0.2c-0.2,0.2-0.2,0.6,0,0.8c0.2,0.2,0.6,0.2,0.8,0c0.2-0.2,0.2-0.6,0-0.8   C20.3,25,20.2,25,20,25z"></path><path class="st2" d="M12.1,80.5h79.8V29.2H12.1V80.5z"></path><path d="M23.4,24.6c-0.5,0.5-0.5,1.4,0,1.9c0.3,0.3,0.6,0.4,1,0.4c0.3,0,0.7-0.1,1-0.4c0.3-0.3,0.4-0.6,0.4-1   c0-0.3-0.1-0.7-0.4-0.9C24.8,24.1,23.9,24.1,23.4,24.6z M24.8,26c-0.2,0.2-0.6,0.2-0.9,0c-0.2-0.2-0.2-0.6,0-0.8   c0.1-0.1,0.3-0.2,0.4-0.2c0.2,0,0.3,0.1,0.4,0.2C25,25.4,25,25.8,24.8,26z"></path><path d="M19.1,24.6c-0.5,0.5-0.5,1.4,0,1.9c0.3,0.3,0.6,0.4,1,0.4c0.3,0,0.7-0.1,1-0.4c0.3-0.3,0.4-0.6,0.4-1   c0-0.3-0.1-0.7-0.4-0.9C20.5,24.1,19.6,24.1,19.1,24.6z M20.5,26c-0.2,0.2-0.6,0.2-0.8,0c-0.2-0.2-0.2-0.6,0-0.8   C19.7,25,19.9,25,20,25c0.1,0,0.3,0.1,0.4,0.2C20.7,25.4,20.7,25.8,20.5,26z"></path><path d="M14.7,24.6c-0.5,0.5-0.5,1.4,0,1.9c0.3,0.3,0.6,0.4,1,0.4c0.3,0,0.7-0.1,1-0.4c0.3-0.3,0.4-0.6,0.4-1   c0-0.3-0.1-0.7-0.4-0.9C16.1,24.1,15.3,24.1,14.7,24.6z M16.1,26c-0.2,0.2-0.6,0.2-0.8,0c-0.2-0.2-0.2-0.6,0-0.8   c0.1-0.1,0.3-0.2,0.4-0.2c0.2,0,0.3,0.1,0.4,0.2C16.4,25.4,16.4,25.8,16.1,26z"></path><path d="M11.1,21.8v7.5v52.2h81.8V28.2v-6.5H11.1z M12.1,22.8h79.8v5.5H12.1V22.8z M91.9,80.5H12.1V29.2h79.8V80.5z"></path></g><g><circle class="st2" cx="51.2" cy="45.3" r="6.8"></circle><path d="M55.6,55.6l5.3,0l0.9,3.6l1.1-0.3l-1.1-4.5l-7.2,0L54.5,55c0,0-0.1,0.9-0.6,1.7c-0.6,1.1-1.5,1.6-2.7,1.6h0   c-2.7,0-3.2-3.2-3.3-3.4l-0.1-0.5l-7.2,0l-3.5,13.8l0,0.1l1.1,0.3l3.3-13l5.3,0c0.2,0.8,1.2,3.9,4.3,3.9h0.1   C53.8,59.5,55.1,57.5,55.6,55.6z"></path><path d="M51.2,53.4c4.4,0,8.1-3.6,8.1-8.1s-3.6-8.1-8.1-8.1c-4.4,0-8.1,3.6-8.1,8.1S46.8,53.4,51.2,53.4z M51.2,38.6   c3.7,0,6.8,3,6.8,6.8c0,3.7-3,6.8-6.8,6.8c-3.7,0-6.8-3-6.8-6.8C44.4,41.6,47.5,38.6,51.2,38.6z"></path></g><g><path d="M62.2,75.2C62.2,75.2,62.1,75.2,62.2,75.2c-4.1,0-7.4-3.3-7.3-7.4c0-2,0.8-3.8,2.2-5.2c1.4-1.4,3.2-2.1,5.1-2.1   c0,0,0,0,0,0c2,0,3.8,0.8,5.2,2.2c1.4,1.4,2.1,3.2,2.1,5.2c0,2-0.8,3.8-2.2,5.2C65.9,74.4,64.1,75.2,62.2,75.2z M62.2,61.7   c-3.4,0-6.2,2.7-6.2,6.1c0,3.4,2.7,6.2,6.1,6.2c0,0,0,0,0,0c1.6,0,3.2-0.6,4.3-1.8c1.2-1.2,1.8-2.7,1.8-4.4   C68.4,64.5,65.6,61.7,62.2,61.7C62.2,61.7,62.2,61.7,62.2,61.7z"></path></g><g><polygon points="64,71.8 61.1,68.6 61.2,64 62.3,64 62.3,68.2 64.8,71  "></polygon></g></svg>