<svg xmlns="http://www.w3.org/2000/svg" xmlns:xlink="http://www.w3.org/1999/xlink" version="1.1" x="0px" y="0px" viewBox="0 0 100 100" style="enable-background:new 0 0 100 100;" xml:space="preserve"><g><circle cx="37.9" cy="32.5" r="10.9"></circle><path d="M67.7,35.7c4.8,0,8.7-3.9,8.7-8.7s-3.9-8.7-8.7-8.7c-4.8,0-8.7,3.9-8.7,8.7S62.9,35.7,67.7,35.7z M67.7,22.7   c2.3,0,4.2,1.9,4.2,4.2s-1.9,4.2-4.2,4.2c-2.3,0-4.2-1.9-4.2-4.2S65.4,22.7,67.7,22.7z"></path><path d="M54.8,47.5C54.9,47.5,54.9,47.6,54.8,47.5c0.9,0.6,2.1,0.5,2.8-0.2c2.6-2.5,6.2-4.1,10.1-4.1c6.7,0,12.3,4.5,14.1,10.6   c0.3,0.9,1.1,1.6,2,1.6H84c1.4,0,2.4-1.4,2-2.7c-2.3-8-9.6-13.8-18.3-13.8c-5.1,0-9.8,2-13.2,5.3C53.6,45.2,53.7,46.8,54.8,47.5z"></path><path d="M37.9,46.6c-13.5,0-24.5,11-24.5,24.5c0,13.5,49,13.5,49,0C62.4,57.6,51.4,46.6,37.9,46.6z"></path><path d="M94.9,58.5h-28c-1.6,0-2.8,1.6-2.4,3.1c0,0,0,0,0,0.1c0.3,1.1,1.3,1.8,2.4,1.8H95c1.5,0,2.6-1.3,2.5-2.8   C97.4,59.4,96.2,58.5,94.9,58.5z"></path><path d="M8.9,58.5H5.1c-1.3,0-2.5,0.9-2.6,2.2c-0.1,1.5,1,2.8,2.5,2.8h3.9c1.1,0,2.1-0.7,2.4-1.8c0,0,0,0,0-0.1   C11.7,60,10.5,58.5,8.9,58.5z"></path></g></svg>