<svg xmlns="http://www.w3.org/2000/svg" xmlns:xlink="http://www.w3.org/1999/xlink" version="1.1" x="0px" y="0px" viewBox="0 0 100 100" style="enable-background:new 0 0 100 100;" xml:space="preserve"><path d="M55,93.4c0,0-2.9-1.7-3.1-1.8H15V17.3h9.2v5c0.3,0.5,0.9,0.8,1.6,0.8h33.1c0.7,0,1.4-0.4,1.6-1v-4.9h9.1l0.1,39  c1,0,2,0.2,2.9,0.8l1.1,0.6l-0.1-42.5c0-1.1-0.9-2-2-2H60.4V9.8c-0.2-0.6-0.9-1-1.6-1h-8.6c-0.9-4.3-4.1-7.4-7.9-7.4  c-3.8,0-7,3.2-7.9,7.4h-8.6c-0.7,0-1.3,0.3-1.6,0.8v3.6H13c-1.1,0-2,0.9-2,2v78.2c0,1.1,0.9,2,2,2h43.3L55,93.4z"></path><path d="M48.1,75.8l1.1-1.9H25.8c-1.1,0-2,0.9-2,2s0.9,2,2,2h21.6C47.5,77.2,47.8,76.4,48.1,75.8z"></path><path d="M55,63.9l1.4-2.5c0.1-0.2,0.2-0.4,0.4-0.5h-31c-1.1,0-2,0.9-2,2s0.9,2,2,2h27.5L55,63.9z"></path><path d="M59,38.6H25.8c-1.1,0-2-0.9-2-2s0.9-2,2-2H59c1.1,0,2,0.9,2,2S60.1,38.6,59,38.6z"></path><path d="M59,52H25.8c-1.1,0-2-0.9-2-2s0.9-2,2-2H59c1.1,0,2,0.9,2,2S60.1,52,59,52z"></path><path d="M88.3,77.5l-1.9-3.4v-3.7c0-0.8-0.5-1.6-1.2-2l-3.2-1.9L80,63.1c-0.4-0.7-1.2-1.2-2-1.2h-3.9L70.8,60  c-0.7-0.4-1.6-0.4-2.4,0l-3.3,1.9h-3.8c-0.8,0-1.6,0.5-2,1.2l-1.9,3.3l-3.4,1.9c-0.7,0.4-1.2,1.2-1.2,2v3.9L51,77.5  c-0.2,0.4-0.3,0.8-0.3,1.2s0.1,0.8,0.3,1.2l1.9,3.2v3.9c0,0.8,0.5,1.6,1.2,2l3.4,1.9l1.9,3.3c0.4,0.7,1.2,1.2,2,1.2h3.8l3.3,1.9  c0.4,0.2,0.8,0.3,1.2,0.3s0.8-0.1,1.2-0.3l3.3-1.9H78c0.8,0,1.6-0.5,2-1.2l1.9-3.3l3.2-1.9c0.7-0.4,1.2-1.2,1.2-2v-3.7l1.9-3.4  C88.7,79.1,88.7,78.2,88.3,77.5z M71.4,88h-3.4v-2.9h3.4V88z M71.4,81.2v1.7h-3.5V78h1.7c1.4,0,2.6-1.2,2.6-2.6  c0-1.4-1.2-2.6-2.6-2.6s-2.6,1.2-2.6,2.6h-3.5c0-3.3,2.7-6.1,6.1-6.1s6.1,2.7,6.1,6.1C75.7,78.1,73.9,80.4,71.4,81.2z"></path></svg>