<svg xmlns="http://www.w3.org/2000/svg" xmlns:xlink="http://www.w3.org/1999/xlink" version="1.1" x="0px" y="0px" viewBox="0 0 512 512" style="enable-background:new 0 0 512 512;" xml:space="preserve"><g><path d="M256,217c34,0,61.6-27.6,61.6-61.6S290,93.8,256,93.8s-61.6,27.6-61.6,61.6S222,217,256,217z M256,109.8   c25.1,0,45.6,20.4,45.6,45.6S281.1,201,256,201s-45.6-20.4-45.6-45.6S230.9,109.8,256,109.8z"></path><path d="M418,169.9c28,0,50.9-22.8,50.9-50.9c0-28-22.8-50.9-50.9-50.9S367.1,91,367.1,119C367.1,147.1,390,169.9,418,169.9z    M418,84.2c19.2,0,34.9,15.6,34.9,34.9s-15.6,34.9-34.9,34.9s-34.9-15.6-34.9-34.9S398.8,84.2,418,84.2z"></path><path d="M459.5,171.2l-4,0l-2.4,3.3c-8.2,11.1-21.2,17.7-35,17.7s-26.8-6.6-35-17.7l-2.4-3.3l-4,0c-25.7,0-46.5,20.9-46.5,46.6v9.4   c-6.8-2.9-14.3-4.5-22.2-4.5l-4,0l-2.4,3.3c-10.6,14.4-27.5,23-45.4,23s-34.8-8.6-45.4-23l-2.4-3.3l-4,0c-7.9,0-15.4,1.6-22.2,4.6   v-9.4c0-25.7-20.9-46.6-46.5-46.6l-4,0l-2.4,3.3c-8.2,11.1-21.2,17.7-35,17.7s-26.8-6.6-35-17.7l-2.4-3.3l-4,0   C26.9,171.2,6,192.1,6,217.8v83.7h142v80h135.8c9.9,32.4,38.1,57.3,73.2,61.7c3.6,0.5,7.3,0.7,11,0.7c48.5,0,88-39.5,88-88   c0-20.5-7-39.4-18.8-54.3H506v-83.7C506,192.1,485.1,171.2,459.5,171.2z M22,285.5v-67.7c0-15.6,11.8-28.5,26.9-30.3   c11.2,13.1,27.8,20.8,45.1,20.8s33.9-7.7,45.1-20.8c15.1,1.8,26.9,14.7,26.9,30.3v19.9c-11.1,10.3-18,24.9-18,41.2v6.6H22z    M164,365.5v-86.6c0-20.9,16-38.1,36.4-40c13.7,16.4,34.1,26,55.6,26c21.4,0,41.9-9.7,55.6-26c17.6,1.6,31.9,14.5,35.5,31.5   c-17.6,4.3-33.6,14-45.6,27.9c-13.9,16-21.5,36.5-21.5,57.6c0,3.3,0.2,6.5,0.5,9.7H164z M368,427.8c-3,0-6-0.2-9-0.6   c-35.9-4.5-63-35.2-63-71.4c0-17.3,6.2-34.1,17.6-47.2c11.2-13,26.7-21.5,43.5-24c3.6-0.5,7.2-0.8,10.9-0.8c39.7,0,72,32.3,72,72   S407.7,427.8,368,427.8z M490,285.5h-69.2c-14.7-11.1-33-17.7-52.8-17.7c-1.7,0-3.4,0.1-5,0.2c-2.3-12-8.4-22.5-17-30.4v-19.8   c0-15.6,11.8-28.5,26.9-30.3c11.2,13.1,27.8,20.8,45.1,20.8s33.9-7.7,45.1-20.8c15.1,1.8,26.9,14.7,26.9,30.3V285.5z"></path><path d="M94,169.9c28,0,50.9-22.8,50.9-50.9c0-28-22.8-50.9-50.9-50.9S43.1,91,43.1,119C43.1,147.1,66,169.9,94,169.9z M94,84.2   c19.2,0,34.9,15.6,34.9,34.9s-15.6,34.9-34.9,34.9S59.1,138.3,59.1,119S74.8,84.2,94,84.2z"></path><path d="M402.6,326l-46.5,42.6l-22.2-24.1c-3-3.2-8.1-3.5-11.3-0.5c-3.2,3-3.5,8.1-0.5,11.3l27.6,30c1.6,1.7,3.7,2.6,5.9,2.6   c1.9,0,3.9-0.7,5.4-2.1l52.4-48c3.3-3,3.5-8,0.5-11.3C410.9,323.2,405.9,323,402.6,326z"></path></g></svg>