<svg xmlns="http://www.w3.org/2000/svg" xmlns:xlink="http://www.w3.org/1999/xlink" version="1.1" x="0px" y="0px" viewBox="0 0 66 66" enable-background="new 0 0 66 66" xml:space="preserve"><g><path d="M32.4,13.3c-12.6,0-22.8,10.2-22.8,22.8c0,12.6,10.2,22.8,22.8,22.8s22.8-10.2,22.8-22.8C55.3,23.5,45,13.3,32.4,13.3z    M33.4,56.9v-1.3c0-0.6-0.4-1-1-1c-0.6,0-1,0.4-1,1v1.3c-10.7-0.5-19.3-9.1-19.8-19.8h1.3c0.6,0,1-0.4,1-1c0-0.6-0.4-1-1-1h-1.3   c0.5-10.7,9.1-19.3,19.8-19.8v1.3c0,0.6,0.4,1,1,1c0.6,0,1-0.4,1-1v-1.3c10.7,0.5,19.3,9.1,19.8,19.8h-1.3c-0.6,0-1,0.4-1,1   c0,0.6,0.4,1,1,1h1.3C52.7,47.8,44.1,56.4,33.4,56.9z"></path><path d="M60.7,3.3c-4.6-3.6-11.3-3-15,1.7c-0.3,0.4-0.3,1.1,0.2,1.4l6.6,5.3c0,0-0.1,0.1-0.1,0.1l-1.5,1.9C46,9.9,40,7.5,33.4,7.2   V4.3H35c0.6,0,1-0.4,1-1c0-0.6-0.4-1-1-1h-5.2c-0.6,0-1,0.4-1,1c0,0.6,0.4,1,1,1h1.6v2.9C24.9,7.5,19,9.8,14.2,13.7L13,12.2   l7.2-5.7c0.2-0.2,0.3-0.4,0.4-0.7c0-0.3,0-0.5-0.2-0.7c-3.7-4.7-10.5-5.3-15-1.7C0.7,7,0,13.8,3.7,18.4c0.2,0.2,0.5,0.4,0.8,0.4   c0.2,0,0.4-0.1,0.6-0.2l6.4-5.1l1.2,1.6c-5.7,5.3-9.2,12.8-9.2,21.1C3.5,52,16.5,65,32.4,65s28.9-13,28.9-28.9   c0-8.3-3.5-15.7-9.1-21l1.6-2c0,0,0.1-0.1,0.1-0.2l7,5.6c0.2,0.1,0.4,0.2,0.6,0.2c0.3,0,0.6-0.1,0.8-0.4C66,13.8,65.3,7,60.7,3.3z    M4.6,16.3C2.3,12.7,3.1,7.7,6.6,4.9c3.5-2.8,8.5-2.5,11.6,0.6L4.6,16.3z M59.3,36.1C59.3,50.9,47.3,63,32.4,63   C17.6,63,5.5,50.9,5.5,36.1c0-14.8,12.1-26.9,26.9-26.9C47.3,9.2,59.3,21.3,59.3,36.1z M61.4,16.3L47.8,5.5   c3.1-3.1,8.1-3.4,11.6-0.6C62.9,7.7,63.7,12.7,61.4,16.3z"></path><path d="M33.6,34.3L33.6,34.3l-0.1-5c1.4,0.2,2.6,0.7,3.8,1.5l1.7-2.4c-1.7-1.2-3.6-1.8-5.5-2v-1.3h-1.7v1.3   c-3.2,0.2-5.7,2.1-5.7,5.3c0,3.4,2.3,4.5,5.7,5.3v5.1c-1.6-0.2-3.1-1-4.6-2.3l-1.9,2.3c1.9,1.7,4.1,2.6,6.5,2.9V47h1.7v-1.9   c3.3-0.2,6-2.1,6-5.3C39.5,36.3,37,35.1,33.6,34.3z M31.8,33.9c-1.5-0.5-2.5-0.9-2.5-2.4c0-1.4,1.2-2.1,2.5-2.2V33.9z M33.5,42.3   v-4.7c1.6,0.5,2.7,1,2.7,2.5C36.3,41.5,35,42.2,33.5,42.3z"></path></g></svg>