<svg xmlns="http://www.w3.org/2000/svg" xmlns:xlink="http://www.w3.org/1999/xlink" version="1.1" x="0px" y="0px" viewBox="0 0 32 32" style="enable-background:new 0 0 32 32;" xml:space="preserve"><path d="M19,1C12.4,1,7,6.4,7,13c0,2.6,0.8,5,2.2,6.9L8.2,21c-0.8,0-1.7,0.2-2.3,0.9l-4,4C1.4,26.4,1,27.1,1,28c0,2,1.7,3,3,3  c0.8,0,1.5-0.3,2.1-0.9l4-4c0.6-0.6,0.9-1.5,0.9-2.3l1.1-1.1c2,1.4,4.4,2.2,6.9,2.2c6.6,0,12-5.4,12-12C31,6.4,25.6,1,19,1z M19,21  c-4.4,0-8-3.6-8-8s3.6-8,8-8s8,3.6,8,8S23.4,21,19,21z"></path></svg>