<svg xmlns:dc="http://purl.org/dc/elements/1.1/" xmlns:cc="http://creativecommons.org/ns#" xmlns:rdf="http://www.w3.org/1999/02/22-rdf-syntax-ns#" xmlns:svg="http://www.w3.org/2000/svg" xmlns="http://www.w3.org/2000/svg" xmlns:sodipodi="http://sodipodi.sourceforge.net/DTD/sodipodi-0.dtd" xmlns:inkscape="http://www.inkscape.org/namespaces/inkscape" version="1.1" x="0px" y="0px" viewBox="0 0 80 80" xml:space="preserve"><style type="text/css">
	.st0{fill:#010101;}
	.st1{fill:#060707;}
	.st2{fill:none;stroke:#010101;stroke-width:2;stroke-linecap:round;stroke-linejoin:round;stroke-miterlimit:10;}
	.st3{fill:#2BB673;}
</style><path style="" d="M 40 0 A 40 40 0 0 0 0 40 A 40 40 0 0 0 40 80 A 40 40 0 0 0 80 40 A 40 40 0 0 0 40 0 z M 30 20 L 50 20 C 50.6 20 51 20.4 51 21 L 51 26 L 29 26 L 29 21 C 29 20.4 29.4 20 30 20 z M 38 22 C 37.4 22 37 22.4 37 23 C 37 23.6 37.4 24 38 24 L 42 24 C 42.6 24 43 23.5 43 23 C 43 22.4 42.6 22 42 22 L 38 22 z M 29 28 L 51 28 L 51 52 L 29 52 L 29 28 z M 40 32 C 35.6 32 32 35.6 32 40 C 32 44.4 35.6 48 40 48 C 44.4 48 48 44.4 48 40 C 48 35.6 44.4 32 40 32 z M 40 34 C 43.3 34 46 36.7 46 40 C 46 43.3 43.3 46 40 46 C 36.7 46 34 43.3 34 40 C 34 36.7 36.7 34 40 34 z M 43 37 C 42.75 37 42.500781 37.098828 42.300781 37.298828 L 39 40.599609 L 37.699219 39.298828 C 37.299219 38.898828 36.700781 38.898828 36.300781 39.298828 C 35.900781 39.698828 35.900781 40.299219 36.300781 40.699219 L 38.300781 42.699219 C 38.500781 42.899219 38.8 43 39 43 C 39.2 43 39.499219 42.899219 39.699219 42.699219 L 43.699219 38.699219 C 44.099219 38.299219 44.099219 37.698828 43.699219 37.298828 C 43.499219 37.09883 43.25 37 43 37 z M 29 54 L 51 54 L 51 59 C 51 59.6 50.6 60 50 60 L 30 60 C 29.4 60 29 59.6 29 59 L 29 54 z M 40 55.5 C 39.2 55.5 38.5 56.2 38.5 57 C 38.5 57.8 39.2 58.5 40 58.5 C 40.8 58.5 41.5 57.8 41.5 57 C 41.5 56.1 40.8 55.5 40 55.5 z " fill="#000000" fill-opacity="1" stroke="none"></path></svg>