<?xml version="1.0" encoding="UTF-8"?>
<svg width="221px" height="85px" viewBox="0 0 221 85" version="1.1" xmlns="http://www.w3.org/2000/svg" xmlns:xlink="http://www.w3.org/1999/xlink">
    <!-- Generator: Sketch 60.1 (88133) - https://sketch.com -->
    <title>portfolio-logo</title>
    <desc>Created with Sketch.</desc>
    <defs>
        <path d="M7.86914062,39 L7.86914062,31.5727539 L13.5366211,23.9902344 L21.6884766,39 L30.125,39 L18.4018555,17.5463867 L30.125,1.88964844 L21.6884766,1.88964844 L7.86914062,20.4448242 L7.86914062,1.88964844 L0.441894531,1.88964844 L0.441894531,39 L7.86914062,39 Z M41.4082031,49.6103516 C43.3577474,49.6103516 45.1865234,49.2394206 46.8945312,48.4975586 C48.6025391,47.7556966 50.0992025,46.7464193 51.3845215,45.4697266 C52.6698405,44.1930339 53.683431,42.7006836 54.425293,40.9926758 C55.1671549,39.284668 55.5467122,37.4558919 55.5639648,35.5063477 L55.5639648,35.5063477 L55.5639648,11.2836914 L48.4472656,11.2836914 L48.4472656,26.6040039 C48.4472656,27.3458659 48.3092448,28.0661621 48.0332031,28.7648926 C47.7571615,29.463623 47.3776042,30.0890299 46.8945312,30.6411133 C46.4114583,31.1931966 45.8464355,31.6374512 45.1994629,31.973877 C44.5524902,32.3103027 43.8666992,32.4785156 43.1420898,32.4785156 C42.4002279,32.4785156 41.7058105,32.3577474 41.0588379,32.1162109 C40.4118652,31.8746745 39.8468424,31.5080566 39.3637695,31.0163574 C38.8806966,30.5246582 38.4968262,29.9121908 38.2121582,29.1789551 C37.9274902,28.4457194 37.7851562,27.5874023 37.7851562,26.6040039 L37.7851562,26.6040039 L37.7851562,11.2836914 L30.7460938,11.2836914 L30.7460938,26.6040039 C30.7460938,28.5880534 31.0695801,30.3780111 31.7165527,31.973877 C32.3635254,33.5697428 33.2520345,34.9240723 34.3820801,36.0368652 C35.5121257,37.1496582 36.8276367,38.0079753 38.3286133,38.6118164 C39.8295898,39.2156576 41.434082,39.5175781 43.1420898,39.5175781 C43.9529622,39.5175781 44.7595215,39.3536784 45.5617676,39.0258789 C46.3640137,38.6980794 47.1533203,38.3702799 47.9296875,38.0424805 C47.6708984,38.6808268 47.3344727,39.2717285 46.9204102,39.8151855 C46.5063477,40.3586426 46.0275879,40.828776 45.4841309,41.2255859 C44.9406738,41.6223958 44.3497721,41.9329427 43.7114258,42.1572266 C43.0730794,42.3815104 42.4088542,42.4936523 41.71875,42.4936523 L41.71875,42.4936523 L37.7851562,42.4418945 L37.7851562,49.5585938 L41.4082031,49.6103516 Z M68.0634766,39 L68.0634766,0.259277344 L60.9467773,0.259277344 L60.9467773,39 L68.0634766,39 Z M86.1269531,39.5175781 C87.2828776,39.5175781 88.40861,39.3838704 89.5041504,39.1164551 C90.5996908,38.8490397 91.6434733,38.456543 92.635498,37.9389648 C93.6275228,37.4213867 94.5505371,36.7916667 95.404541,36.0498047 C96.2585449,35.3079427 97.0133464,34.4711914 97.6689453,33.5395508 L97.6689453,33.5395508 L92.4931641,28.3378906 C92.2171224,28.9589844 91.8591309,29.5240072 91.4191895,30.032959 C90.979248,30.5419108 90.4789225,30.9732259 89.9182129,31.3269043 C89.3575033,31.6805827 88.7579753,31.9523112 88.1196289,32.1420898 C87.4812826,32.3318685 86.8170573,32.4267578 86.1269531,32.4267578 C85.8509115,32.4267578 85.5748698,32.4138184 85.2988281,32.3879395 C85.0227865,32.3620605 84.7467448,32.3059896 84.4707031,32.2197266 L84.4707031,32.2197266 L97.7207031,16.2524414 C97.0651042,15.3208008 96.3059896,14.4797363 95.4433594,13.729248 C94.5807292,12.9787598 93.6534017,12.3447266 92.661377,11.8271484 C91.6693522,11.3095703 90.6212565,10.9127604 89.5170898,10.6367188 C88.4129232,10.3606771 87.2828776,10.2226562 86.1269531,10.2226562 C84.1774089,10.2226562 82.3443197,10.5763346 80.6276855,11.2836914 C78.9110514,11.9910482 77.4100749,12.9830729 76.1247559,14.2597656 C74.8394368,15.5364583 73.8258464,17.0805664 73.0839844,18.8920898 C72.3421224,20.7036133 71.9711914,22.7049154 71.9711914,24.8959961 C71.9711914,27.035319 72.3421224,28.9978027 73.0839844,30.7834473 C73.8258464,32.5690918 74.8394368,34.1088867 76.1247559,35.402832 C77.4100749,36.6967773 78.9110514,37.7060547 80.6276855,38.4306641 C82.3443197,39.1552734 84.1774089,39.5175781 86.1269531,39.5175781 Z M79.8642578,28.5708008 C79.726237,28.3292643 79.6140951,28.0532227 79.527832,27.7426758 C79.441569,27.4321289 79.3682454,27.1086426 79.3078613,26.7722168 C79.2474772,26.435791 79.2043457,26.1036784 79.1784668,25.7758789 C79.1525879,25.4480794 79.1396484,25.1547852 79.1396484,24.8959961 C79.1396484,23.7400716 79.3208008,22.7006022 79.6831055,21.7775879 C80.0454102,20.8545736 80.5414225,20.0652669 81.1711426,19.409668 C81.8008626,18.754069 82.5427246,18.2494303 83.3967285,17.895752 C84.2507324,17.5420736 85.1608073,17.3652344 86.1269531,17.3652344 C86.4720052,17.3652344 86.8041178,17.382487 87.123291,17.4169922 C87.4424642,17.4514974 87.7659505,17.5291341 88.09375,17.6499023 L88.09375,17.6499023 L79.8642578,28.5708008 Z" id="path-1"></path>
        <path d="M56.4291992,84 L56.4291992,76.5727539 L71.2836914,76.5727539 L71.2836914,84 L78.7109375,84 L78.7109375,61.7441406 C78.7109375,59.6910807 78.3227539,57.7631022 77.5463867,55.9602051 C76.7700195,54.1573079 75.7089844,52.5830078 74.3632812,51.2373047 C73.0175781,49.8916016 71.443278,48.8305664 69.6403809,48.0541992 C67.8374837,47.277832 65.9095052,46.8896484 63.8564453,46.8896484 C61.8033854,46.8896484 59.8754069,47.277832 58.0725098,48.0541992 C56.2696126,48.8305664 54.6996257,49.8916016 53.3625488,51.2373047 C52.025472,52.5830078 50.96875,54.1573079 50.1923828,55.9602051 C49.4160156,57.7631022 49.027832,59.6910807 49.027832,61.7441406 L49.027832,61.7441406 L49.027832,84 L56.4291992,84 Z M71.2836914,69.1713867 L56.4291992,69.1713867 L56.4291992,61.7441406 C56.4291992,60.726237 56.623291,59.7644043 57.0114746,58.8586426 C57.3996582,57.9528809 57.9301758,57.1635742 58.6030273,56.4907227 C59.2758789,55.8178711 60.0651855,55.2873535 60.9709473,54.8991699 C61.876709,54.5109863 62.8385417,54.3168945 63.8564453,54.3168945 C64.874349,54.3168945 65.8361816,54.5109863 66.7419434,54.8991699 C67.6477051,55.2873535 68.4370117,55.8178711 69.1098633,56.4907227 C69.7827148,57.1635742 70.3132324,57.9528809 70.701416,58.8586426 C71.0895996,59.7644043 71.2836914,60.726237 71.2836914,61.7441406 L71.2836914,61.7441406 L71.2836914,69.1713867 Z M91.5209961,84 L91.5209961,45.2592773 L84.4042969,45.2592773 L84.4042969,84 L91.5209961,84 Z M116.157715,84 L116.157715,76.9609375 L110.800781,76.9609375 C110.058919,76.9609375 109.360189,76.8186035 108.70459,76.5339355 C108.048991,76.2492676 107.479655,75.8653971 106.996582,75.3823242 C106.513509,74.8992513 106.133952,74.3342285 105.85791,73.6872559 C105.581868,73.0402832 105.443848,72.3458659 105.443848,71.6040039 L105.443848,71.6040039 L105.443848,63.3745117 L116.157715,63.3745117 L116.157715,56.3354492 L105.443848,56.3354492 L105.443848,45.2592773 L98.4047852,45.2592773 L98.4047852,56.3354492 L94.9628906,56.3354492 L94.9628906,63.3745117 L98.4047852,63.3745117 L98.4047852,71.6040039 C98.4047852,73.3120117 98.7282715,74.9165039 99.3752441,76.4174805 C100.022217,77.918457 100.910726,79.2339681 102.040771,80.3640137 C103.170817,81.4940592 104.486328,82.3825684 105.987305,83.029541 C107.488281,83.6765137 109.092773,84 110.800781,84 L110.800781,84 L116.157715,84 Z M127.182129,84 L127.182129,68.1621094 C127.182129,67.4375 127.32015,66.751709 127.596191,66.1047363 C127.872233,65.4577637 128.25179,64.8927409 128.734863,64.409668 C129.217936,63.9265951 129.787272,63.5470378 130.442871,63.2709961 C131.09847,62.9949544 131.797201,62.8569336 132.539062,62.8569336 C133.263672,62.8569336 133.94515,62.9949544 134.583496,63.2709961 C135.221842,63.5470378 135.782552,63.9265951 136.265625,64.409668 C136.748698,64.8927409 137.128255,65.4577637 137.404297,66.1047363 C137.680339,66.751709 137.818359,67.4375 137.818359,68.1621094 L137.818359,68.1621094 L137.766602,68.1621094 L137.766602,84 L144.883301,84 L144.883301,68.1621094 C144.883301,66.4541016 144.559814,64.8452962 143.912842,63.3356934 C143.265869,61.8260905 142.385986,60.5062663 141.273193,59.3762207 C140.1604,58.2461751 138.853516,57.357666 137.352539,56.7106934 C135.851562,56.0637207 134.24707,55.7402344 132.539062,55.7402344 C131.607422,55.7402344 130.693034,55.8739421 129.795898,56.1413574 C128.898763,56.4087728 128.027507,56.8616536 127.182129,57.5 L127.182129,57.5 L127.182129,45.2592773 L120.117188,45.2592773 L120.117188,84 L127.182129,84 Z M162.532715,84.5175781 C164.499512,84.5175781 166.341227,84.142334 168.057861,83.3918457 C169.774495,82.6413574 171.271159,81.6148275 172.547852,80.3122559 C173.824544,79.0096842 174.833822,77.4655762 175.575684,75.6799316 C176.317546,73.8942871 176.688477,71.9663086 176.688477,69.8959961 C176.688477,67.6876628 176.317546,65.6820475 175.575684,63.8791504 C174.833822,62.0762533 173.824544,60.5321452 172.547852,59.2468262 C171.271159,57.9615072 169.774495,56.9694824 168.057861,56.270752 C166.341227,55.5720215 164.499512,55.2226562 162.532715,55.2226562 C160.583171,55.2226562 158.750081,55.5935872 157.033447,56.3354492 C155.316813,57.0773112 153.815837,58.099528 152.530518,59.4020996 C151.245199,60.7046712 150.231608,62.2530924 149.489746,64.0473633 C148.747884,65.8416341 148.376953,67.7911784 148.376953,69.8959961 C148.376953,71.9663086 148.747884,73.8942871 149.489746,75.6799316 C150.231608,77.4655762 151.245199,79.0096842 152.530518,80.3122559 C153.815837,81.6148275 155.316813,82.6413574 157.033447,83.3918457 C158.750081,84.142334 160.583171,84.5175781 162.532715,84.5175781 Z M162.532715,77.4267578 C161.566569,77.4267578 160.656494,77.232666 159.80249,76.8444824 C158.948486,76.4562988 158.206624,75.9257812 157.576904,75.2529297 C156.947184,74.5800781 156.451172,73.7864583 156.088867,72.8720703 C155.726562,71.9576823 155.54541,70.9656576 155.54541,69.8959961 C155.54541,68.7573242 155.726562,67.7264811 156.088867,66.8034668 C156.451172,65.8804525 156.947184,65.0868327 157.576904,64.4226074 C158.206624,63.7583822 158.948486,63.2494303 159.80249,62.895752 C160.656494,62.5420736 161.566569,62.3652344 162.532715,62.3652344 C163.498861,62.3652344 164.408936,62.5420736 165.262939,62.895752 C166.116943,63.2494303 166.863118,63.7583822 167.501465,64.4226074 C168.139811,65.0868327 168.64445,65.8804525 169.015381,66.8034668 C169.386312,67.7264811 169.571777,68.7573242 169.571777,69.8959961 C169.571777,71.0174154 169.386312,72.0439453 169.015381,72.9755859 C168.64445,73.9072266 168.139811,74.7008464 167.501465,75.3564453 C166.863118,76.0120443 166.116943,76.5209961 165.262939,76.8833008 C164.408936,77.2456055 163.498861,77.4267578 162.532715,77.4267578 Z M189.265625,84 L189.265625,63.3227539 L197.935059,63.3227539 L197.935059,56.2836914 L189.265625,56.2836914 L189.265625,54.9638672 C189.265625,54.2047526 189.403646,53.501709 189.679688,52.8547363 C189.955729,52.2077637 190.330973,51.647054 190.80542,51.1726074 C191.279867,50.6981608 191.840576,50.3272298 192.487549,50.0598145 C193.134521,49.7923991 193.837565,49.6586914 194.59668,49.6586914 L194.59668,49.6586914 L199.901855,49.6586914 L199.901855,42.6196289 L194.59668,42.6196289 C192.888672,42.6196289 191.28418,42.9431152 189.783203,43.5900879 C188.282227,44.2370605 186.966715,45.1169434 185.83667,46.2297363 C184.706624,47.3425293 183.818115,48.6494141 183.171143,50.1503906 C182.52417,51.6513672 182.200684,53.2558594 182.200684,54.9638672 L182.200684,54.9638672 L182.200684,56.2836914 L178.758789,56.2836914 L178.758789,63.3227539 L182.200684,63.3227539 L182.200684,84 L189.265625,84 Z M210.253418,84 L210.253418,63.3227539 L218.922852,63.3227539 L218.922852,56.2836914 L210.253418,56.2836914 L210.253418,54.9638672 C210.253418,54.2047526 210.391439,53.501709 210.66748,52.8547363 C210.943522,52.2077637 211.318766,51.647054 211.793213,51.1726074 C212.26766,50.6981608 212.828369,50.3272298 213.475342,50.0598145 C214.122314,49.7923991 214.825358,49.6586914 215.584473,49.6586914 L215.584473,49.6586914 L220.889648,49.6586914 L220.889648,42.6196289 L215.584473,42.6196289 C213.876465,42.6196289 212.271973,42.9431152 210.770996,43.5900879 C209.27002,44.2370605 207.954508,45.1169434 206.824463,46.2297363 C205.694417,47.3425293 204.805908,48.6494141 204.158936,50.1503906 C203.511963,51.6513672 203.188477,53.2558594 203.188477,54.9638672 L203.188477,54.9638672 L203.188477,56.2836914 L199.746582,56.2836914 L199.746582,63.3227539 L203.188477,63.3227539 L203.188477,84 L210.253418,84 Z" id="path-2"></path>
    </defs>
    <g id="Page-1" stroke="none" stroke-width="1" fill="none" fill-rule="evenodd">
        <g id="portfolio-logo" fill-rule="nonzero">
            <g id="Kyle">
                <use fill="#000000" xlink:href="#path-1"></use>
                <use fill="#E5E5E4" xlink:href="#path-1"></use>
            </g>
            <g id="Althoff">
                <use fill="#000000" xlink:href="#path-2"></use>
                <use fill="#E5E5E4" xlink:href="#path-2"></use>
            </g>
        </g>
    </g>
</svg>